<svg width="372" height="91" viewBox="0 0 372 91" fill="none" xmlns="http://www.w3.org/2000/svg">
<circle class="logo-circle" cx="15.119" cy="74.9449" r="15.119" fill="#00529D">
    <animate attributeName="opacity" from="0" to="1" dur="2s" repeatCount="0" />
</circle>
<path d="M179.138 22.6857H172.729L172.565 23.1787C171.644 26.7284 171.524 29.1496 171.578 29.9165C172.236 35.8326 175.523 37.4212 177.495 38.1334C183.904 39.941 187.848 33.8606 189.82 30.7382C191.956 27.7801 192.942 28.2731 194.257 28.6018C196.623 30.7053 194.805 35.1753 193.6 37.1473H200.502C203.788 28.3389 199.79 23.3431 197.544 22.0284C190.149 18.0844 185.506 24.2296 183.739 27.4516C180.946 32.5461 178.481 31.3408 177.823 29.5879C176.903 27.3529 178.316 24.0552 179.138 22.6857Z" fill="#00529D"/>
<path d="M171.567 0.33606V18.0844H178.47V13.1543H201.805V5.59483H178.47V0.33606H171.567Z" fill="#00529D"/>
<path fill-rule="evenodd" clip-rule="evenodd" d="M171.578 53.5811C171.578 52.4308 171.743 49.3084 172.564 47.665C173.057 46.2955 174.898 43.3923 178.316 42.7349C180.453 42.1871 185.383 42.1762 188.012 46.5147L201.805 41.0916V47.9937L187.683 53.5811H201.805V60.1546H171.578V53.5811ZM177.155 53.5811C177.155 52.0473 177.911 48.9797 180.934 48.9797C182.194 49.0892 184.057 49.637 184.714 53.5811H177.155Z" fill="#00529D"/>
<rect x="171.578" y="64.0986" width="30.2379" height="6.90214" fill="#00529D"/>
<path d="M30.238 0.33606V21.0425H47.329V90.0638H72.9655V21.0425H90.0566V0.33606H30.238Z" fill="#00529D"/>
<path d="M121.609 0.33606H100.902V90.0638H121.609V52.9238H140.014V90.0638H160.721V0.33606H140.014V33.5321H121.609V0.33606Z" fill="#00529D"/>
<path d="M304.023 0.33606H283.316V90.0638H304.023V53.4168L320.621 90.0638H342.313L322.921 46.186L343.135 0.33606H322.428L304.023 41.9132V0.33606Z" fill="#00529D"/>
<path d="M212.652 90.0638H231.058V50.9517L230.4 39.4482V39.1195L253.407 90.0638H272.47V0.33606H254.065V39.4482L254.722 50.9517V52.5951L231.058 0.33606H212.652V90.0638Z" fill="#00529D"/>
<path d="M201.805 90.0639H171.567V75.2736H178.141V82.5044H183.4V76.2596H189.644V82.5044H201.805V90.0639Z" fill="#00529D"/>
</svg>
